<mxfile>
    <diagram id="Vx6RtLoCIVQiePVvFZfO" name="第 1 页">
        <mxGraphModel dx="1935" dy="1776" grid="1" gridSize="10" guides="1" tooltips="1" connect="1" arrows="1" fold="1" page="1" pageScale="1" pageWidth="827" pageHeight="1169" math="0" shadow="0">
            <root>
                <mxCell id="0"/>
                <mxCell id="1" parent="0"/>
                <mxCell id="10" value="all-queue" style="verticalLabelPosition=bottom;verticalAlign=top;html=1;shape=process;whiteSpace=wrap;rounded=1;size=0.14;arcSize=6;" vertex="1" parent="1">
                    <mxGeometry x="30" y="160" width="580" height="160" as="geometry"/>
                </mxCell>
                <mxCell id="11" value="pre" style="rounded=1;whiteSpace=wrap;html=1;absoluteArcSize=1;arcSize=14;strokeWidth=2;" vertex="1" parent="1">
                    <mxGeometry x="140" y="195" width="100" height="100" as="geometry"/>
                </mxCell>
                <mxCell id="12" value="job" style="rounded=1;whiteSpace=wrap;html=1;absoluteArcSize=1;arcSize=14;strokeWidth=2;" vertex="1" parent="1">
                    <mxGeometry x="270" y="195" width="100" height="100" as="geometry"/>
                </mxCell>
                <mxCell id="13" value="post" style="rounded=1;whiteSpace=wrap;html=1;absoluteArcSize=1;arcSize=14;strokeWidth=2;" vertex="1" parent="1">
                    <mxGeometry x="400" y="195" width="100" height="100" as="geometry"/>
                </mxCell>
                <mxCell id="17" value="" style="shape=flexArrow;endArrow=classic;html=1;" edge="1" parent="1">
                    <mxGeometry width="50" height="50" relative="1" as="geometry">
                        <mxPoint x="690" y="200" as="sourcePoint"/>
                        <mxPoint x="740" y="150" as="targetPoint"/>
                    </mxGeometry>
                </mxCell>
                <mxCell id="18" value="" style="shape=flexArrow;endArrow=classic;html=1;" edge="1" parent="1">
                    <mxGeometry width="50" height="50" relative="1" as="geometry">
                        <mxPoint x="680" y="300" as="sourcePoint"/>
                        <mxPoint x="750" y="345" as="targetPoint"/>
                    </mxGeometry>
                </mxCell>
                <mxCell id="20" value="all-queue" style="verticalLabelPosition=bottom;verticalAlign=top;html=1;shape=process;whiteSpace=wrap;rounded=1;size=0.14;arcSize=6;" vertex="1" parent="1">
                    <mxGeometry x="770" y="70" width="580" height="170" as="geometry"/>
                </mxCell>
                <mxCell id="21" value="pre" style="rounded=1;whiteSpace=wrap;html=1;absoluteArcSize=1;arcSize=14;strokeWidth=2;" vertex="1" parent="1">
                    <mxGeometry x="880" y="105" width="100" height="100" as="geometry"/>
                </mxCell>
                <mxCell id="22" value="queue" style="rounded=1;whiteSpace=wrap;html=1;absoluteArcSize=1;arcSize=14;strokeWidth=2;" vertex="1" parent="1">
                    <mxGeometry x="1010" y="105" width="100" height="100" as="geometry"/>
                </mxCell>
                <mxCell id="23" value="post" style="rounded=1;whiteSpace=wrap;html=1;absoluteArcSize=1;arcSize=14;strokeWidth=2;" vertex="1" parent="1">
                    <mxGeometry x="1140" y="105" width="100" height="100" as="geometry"/>
                </mxCell>
                <mxCell id="24" value="next-tick" style="rounded=1;whiteSpace=wrap;html=1;absoluteArcSize=1;arcSize=14;strokeWidth=2;" vertex="1" parent="1">
                    <mxGeometry x="780" y="330" width="100" height="100" as="geometry"/>
                </mxCell>
                <mxCell id="25" value="" style="verticalLabelPosition=bottom;verticalAlign=top;html=1;strokeWidth=2;shape=mxgraph.arrows2.arrow;dy=0.6;dx=40;notch=0;" vertex="1" parent="1">
                    <mxGeometry x="1380" y="135" width="100" height="70" as="geometry"/>
                </mxCell>
                <mxCell id="29" value="" style="html=1;shadow=0;dashed=0;align=center;verticalAlign=middle;shape=mxgraph.arrows2.uTurnArrow;dy=11;arrowHead=43;dx2=39.25;" vertex="1" parent="1">
                    <mxGeometry x="-110" y="195" width="220" height="175" as="geometry"/>
                </mxCell>
                <mxCell id="31" value="循环" style="text;strokeColor=none;fillColor=none;html=1;fontSize=24;fontStyle=1;verticalAlign=middle;align=center;" vertex="1" parent="1">
                    <mxGeometry x="-80" y="280" width="100" height="40" as="geometry"/>
                </mxCell>
                <mxCell id="32" value="" style="html=1;shadow=0;dashed=0;align=center;verticalAlign=middle;shape=mxgraph.arrows2.arrow;dy=0.6;dx=40;direction=south;notch=0;" vertex="1" parent="1">
                    <mxGeometry x="155" y="60" width="70" height="100" as="geometry"/>
                </mxCell>
                <mxCell id="33" value="" style="html=1;shadow=0;dashed=0;align=center;verticalAlign=middle;shape=mxgraph.arrows2.arrow;dy=0.6;dx=40;direction=south;notch=0;" vertex="1" parent="1">
                    <mxGeometry x="300" y="60" width="70" height="100" as="geometry"/>
                </mxCell>
                <mxCell id="34" value="" style="html=1;shadow=0;dashed=0;align=center;verticalAlign=middle;shape=mxgraph.arrows2.arrow;dy=0.6;dx=40;direction=south;notch=0;" vertex="1" parent="1">
                    <mxGeometry x="420" y="60" width="70" height="100" as="geometry"/>
                </mxCell>
                <mxCell id="36" value="&lt;div style=&quot;color: rgb(225 , 228 , 232) ; background-color: rgb(36 , 41 , 46) ; font-family: &amp;#34;menlo&amp;#34; , &amp;#34;monaco&amp;#34; , &amp;#34;courier new&amp;#34; , monospace ; font-size: 14px ; line-height: 21px&quot;&gt;&lt;span style=&quot;color: #b392f0&quot;&gt;queuePreFlushCb&lt;/span&gt;&lt;/div&gt;" style="html=1;strokeWidth=2;shape=manualInput;whiteSpace=wrap;rounded=1;size=26;arcSize=11;" vertex="1" parent="1">
                    <mxGeometry x="120" y="-20" width="140" height="70" as="geometry"/>
                </mxCell>
                <mxCell id="37" value="&lt;div style=&quot;color: rgb(225 , 228 , 232) ; background-color: rgb(36 , 41 , 46) ; font-family: &amp;#34;menlo&amp;#34; , &amp;#34;monaco&amp;#34; , &amp;#34;courier new&amp;#34; , monospace ; font-size: 14px ; line-height: 21px&quot;&gt;&lt;div style=&quot;font-family: &amp;#34;menlo&amp;#34; , &amp;#34;monaco&amp;#34; , &amp;#34;courier new&amp;#34; , monospace ; line-height: 21px&quot;&gt;&lt;span style=&quot;color: #b392f0&quot;&gt;queueJob&lt;/span&gt;&lt;/div&gt;&lt;/div&gt;" style="html=1;strokeWidth=2;shape=manualInput;whiteSpace=wrap;rounded=1;size=26;arcSize=11;" vertex="1" parent="1">
                    <mxGeometry x="274" y="-20" width="140" height="70" as="geometry"/>
                </mxCell>
                <mxCell id="38" value="&lt;div style=&quot;color: rgb(225 , 228 , 232) ; background-color: rgb(36 , 41 , 46) ; font-family: &amp;#34;menlo&amp;#34; , &amp;#34;monaco&amp;#34; , &amp;#34;courier new&amp;#34; , monospace ; font-size: 14px ; line-height: 21px&quot;&gt;&lt;div style=&quot;font-family: &amp;#34;menlo&amp;#34; , &amp;#34;monaco&amp;#34; , &amp;#34;courier new&amp;#34; , monospace ; line-height: 21px&quot;&gt;&lt;span style=&quot;color: #b392f0&quot;&gt;queuePostFlushCb&lt;/span&gt;&lt;/div&gt;&lt;/div&gt;" style="html=1;strokeWidth=2;shape=manualInput;whiteSpace=wrap;rounded=1;size=26;arcSize=11;" vertex="1" parent="1">
                    <mxGeometry x="430" y="-20" width="140" height="70" as="geometry"/>
                </mxCell>
                <mxCell id="39" value="" style="html=1;shadow=0;dashed=0;align=center;verticalAlign=middle;shape=mxgraph.arrows2.jumpInArrow;dy=15;dx=38;arrowHead=55;rotation=130;" vertex="1" parent="1">
                    <mxGeometry x="262.51" y="344.01" width="186" height="150" as="geometry"/>
                </mxCell>
                <mxCell id="42" value="&lt;div style=&quot;color: rgb(225 , 228 , 232) ; background-color: rgb(36 , 41 , 46) ; font-family: &amp;#34;menlo&amp;#34; , &amp;#34;monaco&amp;#34; , &amp;#34;courier new&amp;#34; , monospace ; font-weight: normal ; font-size: 14px ; line-height: 21px&quot;&gt;&lt;span style=&quot;color: #b392f0&quot;&gt;flushJobs&lt;/span&gt;&lt;/div&gt;" style="swimlane;html=1;childLayout=stackLayout;resizeParent=1;resizeParentMax=0;horizontal=1;startSize=20;horizontalStack=0;" vertex="1" parent="1">
                    <mxGeometry x="95" y="530" width="480" height="380" as="geometry"/>
                </mxCell>
                <mxCell id="43" value="Lane 1" style="swimlane;html=1;startSize=20;horizontal=0;" vertex="1" parent="42">
                    <mxGeometry y="20" width="480" height="120" as="geometry"/>
                </mxCell>
                <mxCell id="47" value="&lt;div style=&quot;color: rgb(225 , 228 , 232) ; background-color: rgb(36 , 41 , 46) ; font-family: &amp;#34;menlo&amp;#34; , &amp;#34;monaco&amp;#34; , &amp;#34;courier new&amp;#34; , monospace ; font-size: 14px ; line-height: 21px&quot;&gt;&lt;span style=&quot;color: #b392f0&quot;&gt;flushPreFlushCbs&lt;/span&gt;&lt;/div&gt;" style="text;html=1;align=center;verticalAlign=middle;resizable=0;points=[];autosize=1;" vertex="1" parent="43">
                    <mxGeometry x="155" y="45" width="150" height="30" as="geometry"/>
                </mxCell>
                <mxCell id="44" value="Lane 2" style="swimlane;html=1;startSize=20;horizontal=0;" vertex="1" parent="42">
                    <mxGeometry y="140" width="480" height="120" as="geometry"/>
                </mxCell>
                <mxCell id="50" value="检查是否递归执行，直到溢出" style="text;html=1;align=center;verticalAlign=middle;resizable=0;points=[];autosize=1;" vertex="1" parent="44">
                    <mxGeometry x="295" y="30" width="170" height="20" as="geometry"/>
                </mxCell>
                <mxCell id="52" value="执行job" style="text;html=1;align=center;verticalAlign=middle;resizable=0;points=[];autosize=1;" vertex="1" parent="44">
                    <mxGeometry x="350" y="90" width="60" height="20" as="geometry"/>
                </mxCell>
                <mxCell id="45" value="Lane 3" style="swimlane;html=1;startSize=20;horizontal=0;" vertex="1" parent="42">
                    <mxGeometry y="260" width="480" height="120" as="geometry"/>
                </mxCell>
                <mxCell id="56" value="&lt;div style=&quot;color: rgb(225 , 228 , 232) ; background-color: rgb(36 , 41 , 46) ; font-family: &amp;#34;menlo&amp;#34; , &amp;#34;monaco&amp;#34; , &amp;#34;courier new&amp;#34; , monospace ; font-size: 14px ; line-height: 21px&quot;&gt;&lt;span style=&quot;color: #b392f0&quot;&gt;flushPostFlushCbs&lt;/span&gt;&lt;/div&gt;" style="text;html=1;align=center;verticalAlign=middle;resizable=0;points=[];autosize=1;" vertex="1" parent="45">
                    <mxGeometry x="155" y="60" width="160" height="30" as="geometry"/>
                </mxCell>
                <mxCell id="51" value="" style="edgeStyle=orthogonalEdgeStyle;rounded=0;orthogonalLoop=1;jettySize=auto;html=1;exitX=1;exitY=0.55;exitDx=0;exitDy=0;exitPerimeter=0;" edge="1" parent="1" source="49" target="50">
                    <mxGeometry relative="1" as="geometry">
                        <Array as="points">
                            <mxPoint x="350" y="731"/>
                            <mxPoint x="350" y="710"/>
                        </Array>
                    </mxGeometry>
                </mxCell>
                <mxCell id="55" style="edgeStyle=orthogonalEdgeStyle;rounded=0;orthogonalLoop=1;jettySize=auto;html=1;entryX=-0.007;entryY=0.7;entryDx=0;entryDy=0;entryPerimeter=0;" edge="1" parent="1" source="49" target="52">
                    <mxGeometry relative="1" as="geometry">
                        <Array as="points">
                            <mxPoint x="350" y="730"/>
                            <mxPoint x="350" y="774"/>
                        </Array>
                    </mxGeometry>
                </mxCell>
                <mxCell id="49" value="循环queue&amp;nbsp;" style="text;html=1;align=center;verticalAlign=middle;resizable=0;points=[];autosize=1;" vertex="1" parent="1">
                    <mxGeometry x="210" y="720" width="80" height="20" as="geometry"/>
                </mxCell>
                <mxCell id="57" value="Lane 3" style="swimlane;html=1;startSize=20;horizontal=0;" vertex="1" parent="1">
                    <mxGeometry x="95" y="910" width="480" height="120" as="geometry"/>
                </mxCell>
                <mxCell id="58" value="&lt;div style=&quot;background-color: rgb(36 , 41 , 46) ; font-family: &amp;#34;menlo&amp;#34; , &amp;#34;monaco&amp;#34; , &amp;#34;courier new&amp;#34; , monospace ; font-size: 14px ; line-height: 21px&quot;&gt;&lt;font color=&quot;#b392f0&quot;&gt;判读queue是否还有job，递归执行&lt;/font&gt;&lt;/div&gt;&lt;span style=&quot;color: rgb(179 , 146 , 240) ; font-family: &amp;#34;menlo&amp;#34; , &amp;#34;monaco&amp;#34; , &amp;#34;courier new&amp;#34; , monospace ; font-size: 14px ; background-color: rgb(36 , 41 , 46)&quot;&gt;flushJobs&lt;/span&gt;" style="text;html=1;align=center;verticalAlign=middle;resizable=0;points=[];autosize=1;" vertex="1" parent="57">
                    <mxGeometry x="115" y="55" width="240" height="40" as="geometry"/>
                </mxCell>
            </root>
        </mxGraphModel>
    </diagram>
</mxfile>